<svg xmlns="http://www.w3.org/2000/svg" xmlns:xlink="http://www.w3.org/1999/xlink" viewBox="0 0 500 500" style="enable-background:new 0 0 500 500" xml:space="preserve"><path style="opacity:.7;fill:#fff" d="M67.931 167.086s-27.877 71.988 11.297 144.503c39.174 72.516 119.879 110.802 184.469 143.548 64.59 32.746 131.661 16.799 163.534-36.838 31.873-53.637-11.845-91.928-11.897-168.418-.051-76.49 11.447-96.742-29.963-161.364-41.41-64.623-143.059-78.925-219.9-30.996-76.84 47.929-97.54 109.565-97.54 109.565z"/><path style="fill:#92e3a9" d="M112.599 91.449a96.387 96.387 0 0 1 13.229-7.695c33.323-15.94 74.225-10.692 106.251 7.715 32.026 18.407 55.991 48.498 73.432 81.06 7.969 14.877 15.094 30.863 27.895 41.862 16.506 14.183 38.798 17.384 58.467 25.108 71.52 28.086 72.336 131.061 9.649 169.512-24.711 15.157-55.229 19.73-83.625 21.847-39.334 2.933-79.386 1.43-117.372-9.19-37.986-10.62-73.927-30.825-99.341-60.99-33.284-39.507-46.112-93.22-44.434-144.851.849-26.129 5.242-52.477 16.294-76.169 8.886-19.047 22.358-36.311 39.555-48.209z"/><path style="opacity:.7;fill:#fff" d="M112.599 91.449a96.387 96.387 0 0 1 13.229-7.695c33.323-15.94 74.225-10.692 106.251 7.715 32.026 18.407 55.991 48.498 73.432 81.06 7.969 14.877 15.094 30.863 27.895 41.862 16.506 14.183 38.798 17.384 58.467 25.108 71.52 28.086 72.336 131.061 9.649 169.512-24.711 15.157-55.229 19.73-83.625 21.847-39.334 2.933-79.386 1.43-117.372-9.19-37.986-10.62-73.927-30.825-99.341-60.99-33.284-39.507-46.112-93.22-44.434-144.851.849-26.129 5.242-52.477 16.294-76.169 8.886-19.047 22.358-36.311 39.555-48.209z"/><path style="fill:none;stroke:#263238;stroke-linecap:round;stroke-linejoin:round;stroke-miterlimit:10" d="M135.364 134.915c.342-1.486.528-3.03.528-4.619 0-11.339-9.192-20.532-20.532-20.532-1.854 0-3.65.25-5.358.711-3.381-5.983-9.796-10.025-17.158-10.025-10.463 0-19.017 8.159-19.656 18.461a16.15 16.15 0 0 0-2.979-.286c-8.277 0-15.087 6.247-15.992 14.282-4.86.105-8.769 4.07-8.769 8.955a8.965 8.965 0 0 0 8.965 8.965H129.7a8.965 8.965 0 0 0 5.664-15.912zM80.595 166.061v20.747M80.595 153.613v8.298M80.595 145.857v4.439M76.677 184.383l3.918 4.85 3.918-4.85M93.967 174.95v20.747M93.967 162.502v8.298M93.967 154.747v4.439M90.049 193.272l3.918 4.85 3.918-4.85M106.461 157.511v20.747M106.461 145.063v8.299M106.461 137.308v4.439M102.543 175.833l3.919 4.85 3.918-4.85M305.125 275.09a20.564 20.564 0 0 1-.528-4.62c0-11.339 9.192-20.532 20.531-20.532 1.855 0 3.65.25 5.359.711 3.381-5.983 9.796-10.025 17.158-10.025 10.463 0 19.017 8.159 19.656 18.461a16.15 16.15 0 0 1 2.979-.286c8.277 0 15.087 6.247 15.992 14.282 4.86.105 8.769 4.07 8.769 8.955a8.965 8.965 0 0 1-8.965 8.965h-75.287a8.965 8.965 0 0 1-8.965-8.965 8.942 8.942 0 0 1 3.301-6.946zM356.69 298.631v-20.747M356.69 311.079v-8.298M356.69 318.834v-4.439"/><path style="fill:none;stroke:#263238;stroke-linecap:round;stroke-linejoin:round;stroke-miterlimit:10" d="m360.608 280.309-3.918-4.85-3.918 4.85M343.318 289.742v-20.747M343.318 302.19v-8.298M343.318 309.945v-4.439M347.236 271.42l-3.918-4.85-3.918 4.85M330.824 307.181v-20.747M330.824 319.629v-8.299M330.824 327.384v-4.439M334.742 288.859l-3.918-4.85-3.918 4.85"/><path style="fill:none;stroke:#263238;stroke-miterlimit:10" d="M34.333 445.477h433.964"/><path style="fill:#92e3a9;stroke:#263238;stroke-linecap:round;stroke-linejoin:round;stroke-miterlimit:10" d="M362.789 383.995s17.238 1.36 17.957 14.079c0 0-17.456 8.037-17.957-14.079zM396.889 387.153s9.63-13.02 25.191-6.343c0 0-9.502 15.741-25.191 6.343zM420.761 346.046s2.769 25.049-20.031 18.151c0 0 7.24-18.415 20.031-18.151zM392.767 332.102s18.032 9.724 4.774 24.479c-.001 0-12.647-10.538-4.774-24.479zM370.579 354.485s19.606-1.978 19.606 16.171c0 0-19.606.772-19.606-16.171z"/><path style="fill:none;stroke:#263238;stroke-linecap:round;stroke-linejoin:round;stroke-miterlimit:10" d="M389.068 423.98s-8.939-18.758-.359-37.862c8.58-19.105 11.481-35.192 6.998-46.533"/><path style="fill:none;stroke:#263238;stroke-linecap:round;stroke-linejoin:round;stroke-miterlimit:10" d="M377.02 359.364s11.752 4.669 15.746 16.774M414.564 356.068s-6.791 9.251-18.297 8.252M414.564 383.471s-18.809 5.419-26.284 3.645M368.41 389.723s8.407 9.228 16.863 9.083"/><path style="fill:#263238" d="M367.464 409.117h39.469l-4.134 36.078h-31.201z"/><path style="fill:#263238" d="M407.635 413.409h-40.873a.995.995 0 0 1-.995-.995v-3.099c0-.549.445-.995.995-.995h40.873c.549 0 .995.445.995.995v3.099a.996.996 0 0 1-.995.995z"/><path style="fill:none;stroke:#fff;stroke-linecap:round;stroke-linejoin:round;stroke-miterlimit:10" d="M370.579 413.409h23.773M398.835 413.409h3.572"/><defs><path id="a" d="M460.43 106.79v146.03c0 3.7-3 6.7-6.7 6.7H170.98c-3.7 0-6.71-3-6.71-6.7V106.79c0-3.7 3.01-6.7 6.71-6.7h282.75c3.7 0 6.7 3 6.7 6.7z"/></defs><use xlink:href="#a" style="overflow:visible;fill:#fff"/><clipPath id="b"><use xlink:href="#a" style="overflow:visible"/></clipPath><path style="opacity:.2;clip-path:url(#b);fill:#92e3a9" d="M460.43 114.55v138.27c0 3.7-3 6.7-6.7 6.7H275.84V114.55h184.59z"/><use xlink:href="#a" style="overflow:visible;fill:none;stroke:#263238;stroke-linecap:round;stroke-linejoin:round;stroke-miterlimit:10"/><path style="fill:#92e3a9;stroke:#263238;stroke-linecap:round;stroke-linejoin:round;stroke-miterlimit:10" d="M435.664 173.626H398.87a7.429 7.429 0 0 0-7.429 7.429h0a7.429 7.429 0 0 0 7.429 7.429h36.794a7.429 7.429 0 0 0 7.429-7.429h0a7.43 7.43 0 0 0-7.429-7.429z"/><path style="fill:#999;stroke:#263238;stroke-linecap:round;stroke-linejoin:round;stroke-miterlimit:10" d="M460.43 106.79v13.68H164.27v-13.68c0-3.7 3.01-6.7 6.71-6.7h282.75c3.7 0 6.7 3 6.7 6.7z"/><circle style="fill:#92e3a9;stroke:#263238;stroke-linecap:round;stroke-linejoin:round;stroke-miterlimit:10" cx="176.802" cy="109.934" r="4.615"/><circle style="fill:#757575;stroke:#263238;stroke-linecap:round;stroke-linejoin:round;stroke-miterlimit:10" cx="189.302" cy="109.934" r="4.615"/><circle style="fill:#fff;stroke:#263238;stroke-linecap:round;stroke-linejoin:round;stroke-miterlimit:10" cx="201.802" cy="109.934" r="4.615"/><path style="fill:none;stroke:#263238;stroke-linecap:round;stroke-linejoin:round;stroke-miterlimit:10" d="M275.835 120.47v139.18"/><path style="fill:#fff;stroke:#263238;stroke-linecap:round;stroke-linejoin:round;stroke-miterlimit:10" d="M450.352 114.549h-64.747a4.615 4.615 0 0 1-4.615-4.615h0a4.615 4.615 0 0 1 4.615-4.615h64.747a4.615 4.615 0 0 1 4.615 4.615h0a4.615 4.615 0 0 1-4.615 4.615z"/><path style="fill:#bfbfbf;stroke:#263238;stroke-miterlimit:10" d="M438.543 163.341H298.424a4.549 4.549 0 1 1 0-9.098h140.119a4.549 4.549 0 1 1 0 9.098z"/><path style="fill:#92e3a9;stroke:#263238;stroke-linecap:round;stroke-linejoin:round;stroke-miterlimit:10" d="M373.543 163.341h-75.119a4.549 4.549 0 0 1-4.549-4.549h0a4.549 4.549 0 0 1 4.549-4.549h75.119a4.549 4.549 0 0 1 4.549 4.549h0a4.549 4.549 0 0 1-4.549 4.549z"/><path style="fill:none;stroke:#263238;stroke-linecap:round;stroke-linejoin:round;stroke-miterlimit:10" d="M298.011 227.96h6.174v6.174h-6.174z"/><path style="fill:none;stroke:#263238;stroke-linecap:round;stroke-linejoin:round;stroke-miterlimit:10" d="m299.887 230.624.911 1.237 1.512-2.151"/><path style="opacity:.3" d="M357.693 232.844h-42.022a1.798 1.798 0 0 1 0-3.594h42.022a1.797 1.797 0 1 1 0 3.594z"/><path style="fill:#263238" d="M206.819 234.728h.024l.996-6.849h1.211l-1.295 8.396h-1.967l-1.295-8.396h1.332l.994 6.849zM210.983 231.417h1.811v1.199h-1.811v2.459h2.279v1.199h-3.598v-8.396h3.598v1.199h-2.279v2.34zM216.838 236.275c-.072-.216-.12-.348-.12-1.031v-1.319c0-.779-.264-1.067-.863-1.067h-.456v3.418h-1.319v-8.396h1.991c1.367 0 1.955.636 1.955 1.931v.66c0 .863-.276 1.415-.864 1.691v.023c.66.276.876.899.876 1.775v1.295c0 .408.012.708.144 1.02h-1.344zm-1.439-7.196v2.579h.516c.492 0 .792-.216.792-.888v-.827c0-.601-.204-.864-.672-.864h-.636zM220.175 235.003v1.271h-1.271v-1.271h1.271zM224.927 228.983c-.42 0-.684.228-.684.827v.9h-1.247v-.816c0-1.343.671-2.11 1.967-2.11 1.295 0 1.967.768 1.967 2.11 0 1.116-.408 2.016-1.631 3.322-.78.84-.996 1.235-.996 1.68 0 .06 0 .119.012.18h2.495v1.199h-3.814v-1.031c0-.936.335-1.644 1.319-2.675 1.008-1.067 1.296-1.727 1.296-2.626-.001-.756-.264-.96-.684-.96zM229.019 235.003v1.271h-1.271v-1.271h1.271zM229.872 229.894c0-1.343.708-2.11 2.003-2.11 1.295 0 2.003.768 2.003 2.11v4.366c0 1.343-.708 2.11-2.003 2.11-1.295 0-2.003-.768-2.003-2.11v-4.366zm1.319 4.45c0 .6.264.827.684.827.42 0 .684-.228.684-.827v-4.534c0-.6-.264-.827-.684-.827-.419 0-.684.228-.684.827v4.534zM235.919 233.564v.78c0 .6.264.816.684.816.42 0 .684-.216.684-.816v-1.848c0-.6-.264-.827-.684-.827-.419 0-.684.228-.684.827v.252h-1.247l.24-4.869h3.478v1.199h-2.303l-.108 2.003h.024c.24-.395.612-.611 1.14-.611.971 0 1.463.684 1.463 1.919v1.871c0 1.343-.671 2.11-1.967 2.11-1.295 0-1.967-.768-1.967-2.11v-.696h1.247z"/><path style="fill:none;stroke:#263238;stroke-linecap:round;stroke-linejoin:round;stroke-miterlimit:10" d="M200.01 202.798a31.533 31.533 0 0 1-7.311-10.554M228.812 149.357c10.194 2.362 18.488 9.68 22.209 19.277"/><path style="fill:#92e3a9;stroke:#263238;stroke-linecap:round;stroke-linejoin:round;stroke-miterlimit:10" d="M231.465 172.021v-8.961l-6.713-.578a18.513 18.513 0 0 0-1.66-4.023l4.333-5.151-6.337-6.337-5.151 4.333a18.472 18.472 0 0 0-4.023-1.66l-.578-6.713h-8.961l-.579 6.713c-1.416.4-2.765.955-4.022 1.66l-5.151-4.333-6.336 6.337 4.333 5.151a18.472 18.472 0 0 0-1.66 4.023l-6.713.578v8.961l6.713.578c.4 1.416.955 2.765 1.66 4.023l-4.333 5.151 6.336 6.337 5.151-4.333a18.492 18.492 0 0 0 4.023 1.66l.579 6.713h8.961l.578-6.713c1.416-.4 2.765-.955 4.023-1.66l5.15 4.333 6.337-6.337-4.333-5.151a18.472 18.472 0 0 0 1.66-4.023l6.713-.578zm-24.608 5.932c-5.751 0-10.413-4.662-10.413-10.413s4.662-10.413 10.413-10.413 10.413 4.662 10.413 10.413-4.662 10.413-10.413 10.413z"/><defs><path id="c" d="M261.116 192.025v-6.377l-4.777-.412a13.087 13.087 0 0 0-1.181-2.862l3.084-3.665-4.509-4.509-3.665 3.084a13.128 13.128 0 0 0-2.862-1.181l-.412-4.777h-6.377l-.412 4.777a13.137 13.137 0 0 0-2.862 1.181l-3.665-3.084-4.509 4.509 3.083 3.665a13.116 13.116 0 0 0-1.181 2.863l-4.777.412v6.377l4.777.412a13.137 13.137 0 0 0 1.181 2.862l-3.083 3.665 4.509 4.509 3.665-3.083c.895.502 1.855.897 2.862 1.181l.412 4.777h6.377l.412-4.777a13.165 13.165 0 0 0 2.863-1.181l3.665 3.083 4.509-4.509-3.084-3.665c.502-.895.897-1.855 1.181-2.862l4.776-.413zm-17.511 4.221a7.41 7.41 0 1 1 .001-14.821 7.41 7.41 0 0 1-.001 14.821z"/></defs><use xlink:href="#c" style="overflow:visible;fill:#92e3a9"/><clipPath id="d"><use xlink:href="#c" style="overflow:visible"/></clipPath><path style="opacity:.3;clip-path:url(#d);fill:#fff" d="M261.116 192.025v-6.377l-4.777-.412a13.087 13.087 0 0 0-1.181-2.862l3.084-3.665-4.509-4.509-3.665 3.084a13.128 13.128 0 0 0-2.862-1.181l-.412-4.777h-6.377l-.412 4.777a13.137 13.137 0 0 0-2.862 1.181l-3.665-3.084-4.509 4.509 3.083 3.665a13.116 13.116 0 0 0-1.181 2.863l-4.777.412v6.377l4.777.412a13.137 13.137 0 0 0 1.181 2.862l-3.083 3.665 4.509 4.509 3.665-3.083c.895.502 1.855.897 2.862 1.181l.412 4.777h6.377l.412-4.777a13.165 13.165 0 0 0 2.863-1.181l3.665 3.083 4.509-4.509-3.084-3.665c.502-.895.897-1.855 1.181-2.862l4.776-.413zm-17.511 4.221a7.41 7.41 0 1 1 .001-14.821 7.41 7.41 0 0 1-.001 14.821z"/><use xlink:href="#c" style="overflow:visible;fill:none;stroke:#263238;stroke-linecap:round;stroke-linejoin:round;stroke-miterlimit:10"/><defs><path id="e" d="M229.922 206.877v-4.538l-3.399-.293a9.347 9.347 0 0 0-.841-2.037l2.194-2.608-3.209-3.208-2.608 2.194a9.344 9.344 0 0 0-2.037-.84l-.293-3.399h-4.538l-.293 3.399c-.717.202-1.4.484-2.037.84l-2.608-2.194-3.208 3.208 2.194 2.608a9.344 9.344 0 0 0-.84 2.037l-3.399.293v4.538l3.399.293c.202.717.484 1.4.84 2.037l-2.194 2.608 3.208 3.208 2.608-2.194c.637.357 1.32.638 2.037.84l.293 3.399h4.538l.293-3.399a9.394 9.394 0 0 0 2.037-.84l2.608 2.194 3.209-3.208-2.194-2.608c.357-.637.638-1.32.841-2.037l3.399-.293zm-12.46 3.004a5.273 5.273 0 1 1 0-10.547 5.273 5.273 0 0 1 0 10.547z"/></defs><use xlink:href="#e" style="overflow:visible;fill:#92e3a9"/><clipPath id="f"><use xlink:href="#e" style="overflow:visible"/></clipPath><path style="opacity:.5;clip-path:url(#f);fill:#fff" d="M229.922 206.877v-4.538l-3.399-.293a9.347 9.347 0 0 0-.841-2.037l2.194-2.608-3.209-3.208-2.608 2.194a9.344 9.344 0 0 0-2.037-.84l-.293-3.399h-4.538l-.293 3.399c-.717.202-1.4.484-2.037.84l-2.608-2.194-3.208 3.208 2.194 2.608a9.344 9.344 0 0 0-.84 2.037l-3.399.293v4.538l3.399.293c.202.717.484 1.4.84 2.037l-2.194 2.608 3.208 3.208 2.608-2.194c.637.357 1.32.638 2.037.84l.293 3.399h4.538l.293-3.399a9.394 9.394 0 0 0 2.037-.84l2.608 2.194 3.209-3.208-2.194-2.608c.357-.637.638-1.32.841-2.037l3.399-.293zm-12.46 3.004a5.273 5.273 0 1 1 0-10.547 5.273 5.273 0 0 1 0 10.547z"/><use xlink:href="#e" style="overflow:visible;fill:none;stroke:#263238;stroke-linecap:round;stroke-linejoin:round;stroke-miterlimit:10"/><path style="fill:none;stroke:#263238;stroke-linecap:round;stroke-linejoin:round;stroke-miterlimit:10" d="m248.61 167.545 2.411 1.089.951-2.178M195.055 193.237l-2.412-1.089-.951 2.178"/><path style="fill:#263238" d="M295.193 142.991v4.911c0 .454.199.618.518.618.318 0 .519-.164.519-.618v-4.911h.946v4.848c0 1.019-.51 1.601-1.492 1.601s-1.491-.582-1.491-1.601v-4.848h1zM300.82 144.564v.828c0 1.018-.491 1.573-1.492 1.573h-.473v2.392h-1v-6.366h1.473c1.001 0 1.492.555 1.492 1.573zm-1.965-.664v2.155h.473c.318 0 .491-.145.491-.6v-.955c0-.455-.173-.6-.491-.6h-.473zM304.401 149.357h-1.01l-.173-1.155h-1.228l-.173 1.155h-.917l1.018-6.366h1.464l1.019 6.366zm-2.282-2.019h.964l-.474-3.219h-.018l-.472 3.219zM304.863 142.991h1.582c1 0 1.491.555 1.491 1.574v3.219c0 1.018-.491 1.573-1.491 1.573h-1.582v-6.366zm1 .909v4.547h.564c.318 0 .51-.164.51-.619v-3.31c0-.455-.191-.619-.51-.619h-.564zM311.8 149.357h-1.01l-.173-1.155h-1.228l-.173 1.155h-.918l1.019-6.366h1.464l1.019 6.366zm-2.282-2.019h.964l-.474-3.219h-.018l-.472 3.219zM311.625 142.991h3.092v.91h-1.045v5.456h-1.001V143.9h-1.046v-.909zM315.151 142.991h1.001v6.366h-1.001v-6.366zM317.788 144.746h-.019v4.611h-.9v-6.366h1.256l1.009 3.811h.018v-3.811h.891v6.366h-1.027l-1.228-4.611zM322.26 145.81h1.4v2.019c0 1.019-.509 1.601-1.491 1.601-.982 0-1.491-.582-1.491-1.601v-3.31c0-1.018.509-1.6 1.491-1.6.983 0 1.491.582 1.491 1.6v.618h-.945v-.682c0-.455-.2-.627-.518-.627s-.519.173-.519.627v3.438c0 .455.2.619.519.619.318 0 .518-.163.518-.619v-1.173h-.455v-.91zM452.086 192.571l-16.615-11.852 4.73 19.854 3.405-5.062 3.145 4.671 2.509-1.689-3.145-4.671z"/><defs><path id="g" d="M254.011 281.637c2.051-2.887 15.554 5.151 13.893 10.862-1.662 5.711-7.063 5.094-10.228 2.061-3.166-3.033-5.863-9.83-3.665-12.923z"/></defs><use xlink:href="#g" style="overflow:visible;fill:#92e3a9"/><clipPath id="h"><use xlink:href="#g" style="overflow:visible"/></clipPath><path style="opacity:.3;clip-path:url(#h);fill-opacity:.7" d="M254.011 281.637c2.051-2.887 15.554 5.151 13.893 10.862-1.662 5.711-7.063 5.094-10.228 2.061-3.166-3.033-5.863-9.83-3.665-12.923z"/><use xlink:href="#g" style="overflow:visible;fill:none;stroke:#263238;stroke-linecap:round;stroke-linejoin:round;stroke-miterlimit:10"/><path style="fill:#fff;stroke:#263238;stroke-linecap:round;stroke-linejoin:round;stroke-miterlimit:10" d="M260.414 259.466s1.956 0 5.317 7.714c2.344 5.379 1.036 10.644 1.036 10.644l-4.872 23.462-11.932-7.121 6.886-17.226c.001 0-3.566-11.126 3.565-17.473z"/><defs><path id="i" d="m255.612 274.571-7.606 2.523c-.804.207-2.392-1.136-2.322-1.963l2.256-26.583a2.535 2.535 0 0 1 1.894-2.24l8.426-1.83c.804-.207 2.828.755 2.758 1.582l-3.513 26.27a2.533 2.533 0 0 1-1.893 2.241z"/></defs><use xlink:href="#i" style="overflow:visible;fill:#92e3a9"/><clipPath id="j"><use xlink:href="#i" style="overflow:visible"/></clipPath><path style="opacity:.3;clip-path:url(#j);fill-opacity:.7" d="m255.612 274.571-7.606 2.523c-.804.207-2.392-1.136-2.322-1.963l2.256-26.583a2.535 2.535 0 0 1 1.894-2.24l8.426-1.83c.804-.207 2.828.755 2.758 1.582l-3.513 26.27a2.533 2.533 0 0 1-1.893 2.241z"/><use xlink:href="#i" style="overflow:visible;fill:none;stroke:#263238;stroke-linecap:round;stroke-linejoin:round;stroke-miterlimit:10"/><path style="fill:#92e3a9;stroke:#263238;stroke-linecap:round;stroke-linejoin:round;stroke-miterlimit:10" d="m256.864 275.226-8.426 1.83a1.205 1.205 0 0 1-1.501-1.269l2.257-26.583a2.535 2.535 0 0 1 1.894-2.24l8.426-1.83a1.205 1.205 0 0 1 1.501 1.269l-2.256 26.583a2.538 2.538 0 0 1-1.895 2.24z"/><path style="opacity:.3;fill-opacity:.7" d="m252.192 254.123-1.359.295a.194.194 0 0 1-.242-.205l.364-4.287a.408.408 0 0 1 .305-.361l1.359-.295a.194.194 0 0 1 .242.205l-.364 4.287a.407.407 0 0 1-.305.361z"/><path style="fill:#fff;stroke:#263238;stroke-linecap:round;stroke-linejoin:round;stroke-miterlimit:10" d="M264.043 267.448c.327-3.727-3.066-9.321-5.321-9.321s-9.128 5.291-9.128 5.291c-2.659 1.927-1.342 3.762-1.342 3.762-1.565 1.034-1.992 2.432-1.278 3.081.799.725 2.989 0 2.989 0s-2.279 1.666-1.712 2.484c1.342 1.934 5.759-.618 5.759-.618s-2.563 1.691-2.416 2.011c.967 2.111 5.152-.35 5.152-.35l2.942 1.507s-.033 2.491 2.681 2.529"/><path style="fill:#fff;stroke:#263238;stroke-linecap:round;stroke-linejoin:round;stroke-miterlimit:10" d="M248.252 267.18s6.432-4.156 7.243-4.269c.811-.112 3.791-.759 3.791-.759M249.964 270.26s5.225-2.698 6.181-2.698c1.004 0 4.269-.737 4.269-.737M254.011 272.126s1.389-.964 1.933-1.139c.544-.175 3.745 0 3.745 0"/><defs><path id="k" d="M202.554 271.992c10.022.151 32.967 35.975 32.967 35.975l14.442-17.987 4.047-8.342s1.966 14.999 13.893 10.862c0 0-10.478 39.38-22.221 44.127s-44.347-28.66-44.347-28.66l1.219-35.975z"/></defs><use xlink:href="#k" style="overflow:visible;fill:#92e3a9"/><clipPath id="l"><use xlink:href="#k" style="overflow:visible"/></clipPath><path style="opacity:.2;clip-path:url(#l);fill-opacity:.7" d="M203.368 309.99c4.13 4.05 13.91 13.31 23.44 19.88-2.8-9.37-10.47-19.35-10.47-19.35-2.38-.79-5.74-7.92-5.74-7.92-1.58.6-3.82-4.35-3.82-4.35-1.84 1.57-2.87 6.18-3.41 11.74zM234.858 317.15s-.72-4.5.83-9.4l-.17.22s-1.56-2.43-4.04-6.03c-.65 4.67-.98 12.45 3.38 15.21z"/><use xlink:href="#k" style="overflow:visible;fill:none;stroke:#263238;stroke-linecap:round;stroke-linejoin:round;stroke-miterlimit:10"/><path style="fill:#fff;stroke:#263238;stroke-linecap:round;stroke-linejoin:round;stroke-miterlimit:10" d="M98.906 426.254s-6.33 12.709-6.33 15.739c0 3.03-1.055 4.343-6.593 4.343s-19.253.124-21.363-.859H51.796c-3.042 0-4.22-2.877-2.374-2.484 1.846.392 15.451-3.375 19.143-4.892 3.692-1.518 9.788-3.321 13.066-6.492 3.278-3.171 7.253-14.996 7.253-14.996l10.022 9.641z"/><path style="fill:none;stroke:#263238;stroke-linecap:round;stroke-linejoin:round;stroke-miterlimit:10" d="M64.62 445.477c0-3.719 3.956-1.938 10.022-3.484 3.87-.987 4.273-2.353 4.273-2.353"/><defs><path id="m" d="M206.619 294.974c.4 7.276.572 14.833.866 20.474.71 13.635 9.839 53.473 9.839 53.473s9.97 5.989 10.498 16.973c.527 10.983-60.608 41.985-77.013 33.152s-14.189-34.513-14.189-34.513-24.264-98.016-14.328-105.886 13.273-6.9 38.702-10.414c25.429-3.514 41.56 3.758 41.56 3.758s2.308 2.085 2.901 5.124"/></defs><use xlink:href="#m" style="overflow:visible;fill:#92e3a9"/><clipPath id="n"><use xlink:href="#m" style="overflow:visible"/></clipPath><path style="opacity:.2;clip-path:url(#n);fill-opacity:.7" d="M136.618 384.53s-2.21 25.68 14.19 34.52c16.41 8.83 77.54-22.17 77.01-33.16-.52-10.98-10.49-16.97-10.49-16.97s-.9-3.95-2.17-9.78c-8.67 5.62-28.43 17.28-41.29 15.98 0 0 21.41 7.59 35.1 1.07 13.7-6.53-5.69 8.58-9.64 8.34-3.96-.23-33.43-5.57-38.77-2.8-5.34 2.76-17.21 23.14-17.21 23.14s-7.2-16.18-5.6-26.11c0 0 .21-30.92-3.23-48.99 0 0 8.23-14.2-.87-25.23-3.36-4.07-7.03 4.31-10.32 16.5 4.89 29.54 13.29 63.49 13.29 63.49z"/><use xlink:href="#m" style="overflow:visible;fill:none;stroke:#263238;stroke-linecap:round;stroke-linejoin:round;stroke-miterlimit:10"/><path style="fill:#263238" d="M218.906 378.297c1.54-.194 5.71 2.444 5.71 2.444s67.439-17.315 77.587-11.819c20.352 11.024 9.495 32.767 5.275 39.005-4.22 6.238-66.461 35.717-88.088 36.275-21.626.557-61.246-5.412-69.053-18.137-7.807-12.725.186-26.85 11.037-37.218 11.041-10.549 32.572-1.319 39.961-3.429 9.531-2.722 12.869-6.528 17.571-7.121z"/><path style="fill:#fff;stroke:#263238;stroke-linecap:round;stroke-linejoin:round;stroke-miterlimit:10" d="m162.496 437.548-.997 4.349s2.652 7.53 14.318 8.758c11.666 1.228 18.569 3.814 24.174 4.15 5.605.336 8.869-.141 8.869-.141l1.145-1.712-47.509-15.404z"/><defs><path id="o" d="m230.214 437.089-20.206 15.86s-15.667-1.241-28.975-4.331l-.001-.01c-9.576-2.216-17.936-5.396-18.396-9.752-.7-6.623 6.379-8.437 14.793-8.179 1.572.035 3.184.156 4.811.327 13.466 1.444 30.579-5.995 30.579-5.995l17.395 12.08z"/></defs><use xlink:href="#o" style="overflow:visible;fill:#92e3a9"/><clipPath id="p"><use xlink:href="#o" style="overflow:visible"/></clipPath><path style="opacity:.2;clip-path:url(#p);fill-opacity:.7" d="M162.628 438.71c3.63 1.43 8.14 3.42 11.24 5.53 0 0 18.77 9.66 47.61-.29l8.74-6.86-17.4-12.08s-17.11 7.44-30.58 5.99c-1.63-.17-3.24-.29-4.81-.32-8.35-.26-15.38 1.52-14.8 8.03z"/><use xlink:href="#o" style="overflow:visible;fill:none;stroke:#263238;stroke-linecap:round;stroke-linejoin:round;stroke-miterlimit:10"/><defs><path id="q" d="M211.377 443.34c3.643.594-.36 8.045-5.298 5.782s1.655-6.376 5.298-5.782z"/></defs><use xlink:href="#q" style="overflow:visible;fill:#fff"/><clipPath id="r"><use xlink:href="#q" style="overflow:visible"/></clipPath><path style="opacity:.2;clip-path:url(#r);fill-opacity:.7" d="M204.538 447.92c2.49-.3 5.11-.75 7.85-1.37.7-1.46.54-2.96-1.01-3.21-3.06-.5-8.2 2.32-6.84 4.58z"/><use xlink:href="#q" style="overflow:visible;fill:none;stroke:#263238;stroke-linecap:round;stroke-linejoin:round;stroke-miterlimit:10"/><defs><path id="s" d="M181.031 448.608c-9.576-2.216-17.936-5.396-18.396-9.752-.7-6.623 6.379-8.437 14.793-8.179.369.354 8.523 8.241 3.603 17.931z"/></defs><use xlink:href="#s" style="overflow:visible;fill:#fff"/><clipPath id="t"><use xlink:href="#s" style="overflow:visible"/></clipPath><path style="opacity:.2;clip-path:url(#t);fill-opacity:.7" d="M162.628 438.71c3.63 1.43 8.14 3.42 11.24 5.53 0 0 2.8 1.44 7.9 2.64 3.23-8.88-3.99-15.87-4.34-16.2-8.35-.26-15.38 1.52-14.8 8.03z"/><use xlink:href="#s" style="overflow:visible;fill:none;stroke:#263238;stroke-linecap:round;stroke-linejoin:round;stroke-miterlimit:10"/><path style="fill:#fff;stroke:#263238;stroke-linecap:round;stroke-linejoin:round;stroke-miterlimit:10" d="m187.861 440.383-.057.004a.999.999 0 0 1-1.047-.95c-.201-4.172-3.412-7.57-3.445-7.604a1 1 0 0 1 1.441-1.386c.153.16 3.763 3.958 4 8.894a1 1 0 0 1-.892 1.042zM191.864 440.623a1 1 0 0 1-1.106-.974c-.084-4.215-3.031-7.87-3.061-7.907a.999.999 0 0 1 1.546-1.268c.14.169 3.417 4.213 3.514 9.134a.999.999 0 0 1-.893 1.015zM196.651 440.117l-.017.002a1 1 0 0 1-1.084-.909c-.307-3.505-3.288-7.985-3.319-8.03a1 1 0 0 1 1.661-1.115c.135.201 3.298 4.95 3.651 8.97a1.002 1.002 0 0 1-.892 1.082zM201.175 439.639a1.002 1.002 0 0 1-1.093-1.159c.711-4.248-3.235-7.885-3.275-7.922a1 1 0 0 1 1.34-1.484c.197.178 4.801 4.398 3.908 9.736a1 1 0 0 1-.88.829zM206.087 438.458a1 1 0 0 1-1.079-1.218c.87-3.786-2.863-8.065-2.901-8.107a1 1 0 0 1 1.497-1.327c.183.206 4.455 5.087 3.352 9.883a1.001 1.001 0 0 1-.869.769zM310.03 431.044l1.448 4.22s-1.846 7.767-13.319 10.213c-11.473 2.446-18.066 5.743-23.604 6.666-5.539.923-8.835.791-8.835.791l-1.319-1.583 45.629-20.307z"/><defs><path id="u" d="m242.638 437.7 21.76 13.65s15.45-2.88 28.36-7.35v-.01c9.29-3.21 17.27-7.25 17.27-11.63 0-6.66-7.23-7.72-15.57-6.58-1.56.2-3.15.49-4.75.83-13.24 2.85-31.04-2.75-31.04-2.75l-16.03 13.84z"/></defs><use xlink:href="#u" style="overflow:visible;fill:#92e3a9"/><clipPath id="v"><use xlink:href="#u" style="overflow:visible"/></clipPath><path style="opacity:.2;clip-path:url(#v);fill-opacity:.7" d="m242.638 437.7 12.8 8.03c12.85-3.87 21.21-12.06 25.99-18.31-11.35.03-22.76-3.56-22.76-3.56l-16.03 13.84z"/><use xlink:href="#u" style="overflow:visible;fill:none;stroke:#263238;stroke-linecap:round;stroke-linejoin:round;stroke-miterlimit:10"/><path style="fill:#fff;stroke:#263238;stroke-linecap:round;stroke-linejoin:round;stroke-miterlimit:10" d="M292.758 443.99c9.29-3.21 17.27-7.25 17.27-11.63 0-6.66-7.23-7.72-15.57-6.58-.33.39-7.61 9.09-1.7 18.21zM285.103 436.527l.058-.002a.998.998 0 0 0 .941-1.055c-.238-4.17 2.598-7.887 2.627-7.924a1 1 0 0 0-1.579-1.227c-.136.175-3.326 4.331-3.044 9.265a1 1 0 0 0 .997.943zM281.147 437.186a.998.998 0 0 0 .997-1.085c-.359-4.2 2.188-8.145 2.214-8.185a1 1 0 0 0-1.671-1.099c-.121.183-2.956 4.549-2.535 9.453a.999.999 0 0 0 .995.916zM276.333 437.186h.018a1 1 0 0 0 .982-1.018c-.063-3.518 2.432-8.286 2.457-8.334a1.001 1.001 0 0 0-1.769-.935c-.113.214-2.76 5.269-2.689 9.304.011.547.457.983 1.001.983zM271.784 437.186a1 1 0 0 0 .965-1.267c-1.153-4.149 2.389-8.182 2.425-8.222a1.001 1.001 0 0 0-1.489-1.336c-.177.197-4.313 4.878-2.863 10.093a1 1 0 0 0 .962.732zM266.775 436.527a1 1 0 0 0 .945-1.326c-1.263-3.674 2-8.321 2.033-8.367a1 1 0 0 0-1.628-1.163c-.16.224-3.897 5.526-2.296 10.181a1 1 0 0 0 .946.675zM262.027 441.939c-3.56.974 1.203 7.963 5.876 5.193 4.673-2.769-2.316-6.167-5.876-5.193z"/><path style="fill:#263238" d="M166.95 383.571c13.185-2.309 48.189 16.109 69.64 28.382 2.847-1.666 5.046-3.074 6.052-3.97 4.939-4.401 23.789-28.632 36.791-34.17l23.736 31.055c-5.349 7.489-21.182 15.757-36.962 22.581-1.697 2.805-5.15 8.049-9.895 12.929-9.714 9.991-13.674 4.394-13.674 4.394s-6.134-.688-15.196-1.93c-.602 1.162-1.979 2.986-4.58 2.575-1.179-.186-3.447-1.871-6.006-4.095-22.871-3.443-53.918-9.185-62.302-15.939-13.714-11.049.759-39.773 12.396-41.812z"/><path style="fill:#92e3a9;stroke:#263238;stroke-linecap:round;stroke-linejoin:round;stroke-miterlimit:10" d="M131.624 294.974c2.473 8.004 2.68 19.459.645 28.396 0 0-8.876 39.28-9.976 47.828-1.1 8.549-16.133 41.785-16.925 52.662l-6.906 9.943s-10.105-.762-16.83-8.42l4.747-10.529s4.352-16.196 5.934-18.445c1.582-2.249 6.776-32.792 8.531-37.782s12.263-71.498 21.449-79.98c0 0 2.446-.194 3.449 1.729"/><path style="fill:none;stroke:#fff;stroke-linecap:round;stroke-linejoin:round;stroke-miterlimit:10" d="M265.123 421.453c-4.679-1.948-11.404 0-11.404 0s-22.07-9.612-37.187-18.761c-15.117-9.149-36.791-16.022-36.791-16.022-8.308-.593-12.264-.396-16.22 3.956M153.434 416.612s-.111 6.702 9.39 11.343"/><path style="fill:none;stroke:#fff;stroke-linecap:round;stroke-linejoin:round;stroke-miterlimit:10" d="M258.269 388.648s-15.009 10.847-18 18c0 0-5.77 2.455-8.523 4.392"/><path style="fill:none;stroke:#fff;stroke-linecap:round;stroke-linejoin:round;stroke-miterlimit:10" d="M239.179 397.665c-1.008 3.116-1.386 6.503-.527 9.7M242.638 390.626a26.471 26.471 0 0 0-2.148 3.751M221.28 389.637s-5.018 6.706-6.268 12.155M193.329 430.192c-1.866-.12-3.73-.326-5.566-.686M240.404 425.383c-13.696 2.617-28.696 4.617-43.139 4.953"/><path style="fill:none;stroke:#263238;stroke-linecap:round;stroke-linejoin:round;stroke-miterlimit:10" d="M235.521 307.966s-2.967 5.121 0 10.66M156.256 278.039c6.902 4.282 16.582 7.902 23.826 2.337M150.809 274.121a41.839 41.839 0 0 0 2.925 2.246M210.158 300.801c-.412 3.811-.761 8.345-2.811 11.689M210.598 295.286a90.07 90.07 0 0 1-.21 3.114M214.322 312.49s-2.392 2.534-6.915 1.368M137.412 302.604s-.301 16.415-5.788 23.636M168.664 373.946a394.729 394.729 0 0 1-3.901-.924M217.324 368.922C211.708 369 206.708 373 201.708 377c-10 6-20-2-30.396-2.447M139.777 365.764c-.866 6.282-1.826 12.566-3.156 18.769M140.774 357.989a346.45 346.45 0 0 1-.565 4.549M195.616 336.107c-6.308 10.723-15.364 22.949-28.138 26.036M202.488 322.385c-1.531 3.789-3.37 7.467-5.345 11.043M120.684 316.283c-4.794 11.758-9.65 25.732-18.284 35.297M123.961 307.966a306.139 306.139 0 0 1-2.041 5.249M108.532 386.426s-11.472 9.437-16.22 9.983M89.229 426.471c-2.167-1.188-4.727-2.694-5.826-5.018M97.134 429.94a56.744 56.744 0 0 1-5.077-2.051M255.089 297.46c1.271 1.215 2.835 2.233 4.6 2.509M249.964 289.979a28.085 28.085 0 0 0 2.824 4.826"/><path style="fill:#fff;stroke:#263238;stroke-linecap:round;stroke-linejoin:round;stroke-miterlimit:10" d="M152.288 269.81s6.99 10.09 18.99 8.71c6.62-.77 5.94-5.87 5.94-5.87s-1.25-.64-2-2.56c-.71-1.81-.98-4.76.67-9.37.04-.13.09-.27.14-.4 1.88-5.05-20.77-12.07-20.77-12.07s2.77 13.06-2.97 21.56z"/><path style="fill:#263238" d="M163.258 257.24s4.2 10.47 11.96 12.85c-.71-1.81-.98-4.76.67-9.37l-12.63-3.48z"/><path style="fill:#fff;stroke:#263238;stroke-linecap:round;stroke-linejoin:round;stroke-miterlimit:10" d="M161.192 254.78c-.531 4.491 10.912 11.279 17.604 11.262 3.066-.008 7.309-5.909 9.099-14.625.903-4.399-1.78-8.703.396-14.835 1.861-5.245-1.777-20.877-17.209-22.154-22.053-1.825-24.619 21.816-14.855 37.762"/><path style="fill:none;stroke:#263238;stroke-linecap:round;stroke-linejoin:round;stroke-miterlimit:10" d="M188.736 235.396s-1.83-2.769-5.391-1.978M176.027 233.275s-4.549-.451-7.319 2.12M182.159 236.385c-.396 4.549 4.747 12.165 3.462 13.253-1.286 1.088-4.352-.396-5.538-.989"/><ellipse style="fill:#263238" cx="174.148" cy="240.39" rx=".89" ry="1.236"/><ellipse style="fill:#263238" cx="184.937" cy="240.39" rx=".89" ry="1.236"/><path style="fill:none;stroke:#263238;stroke-linecap:round;stroke-linejoin:round;stroke-miterlimit:10" d="M182.06 254.484s-5.242.692-7.912-2.077"/><path style="fill:none;stroke:#263238;stroke-linecap:round;stroke-linejoin:round;stroke-miterlimit:10" d="M175.038 253.145s.297 2.525 3.066 3.217c2.769.692 2.67-1.802 2.67-1.802"/><path style="fill:#263238" d="M167.225 224.516s24.527 6.725 27.099-3.659c0 0-4.461.534-9.387-4.846-6.042-6.6-15.734-8.308-23.943-5.341-8.209 2.967-7.714 7.268-7.714 7.268s-4.846.645-7.022 6.48c-2.176 5.835 1.257 26.471 9.494 30.857l2.275-2.868s-.912-5.885 2.967-10.286l2.176.56s-2.374-5.097.099-7.879c2.472-2.782 4.154-6.428 3.956-10.286z"/><path style="fill:#fff;stroke:#263238;stroke-linecap:round;stroke-linejoin:round;stroke-miterlimit:10" d="M160.994 241.626s-2.473-7.121-5.637-5.242c-3.165 1.879.297 15.527 5.637 12.462"/><path style="opacity:.3;fill:none;stroke:#fff;stroke-linecap:round;stroke-linejoin:round;stroke-miterlimit:10" d="M160.994 218.736s15.248 2.571 19.781-3.561M170.884 222.297s10.599 3.56 17.852 0M157.571 223.879s-.153 8.791-8.263 11.516"/></svg>